<?xml version="1.0" encoding="utf-8"?>
<!-- Generator: Adobe Illustrator 24.3.0, SVG Export Plug-In . SVG Version: 6.00 Build 0)  -->
<svg version="1.1" id="Layer_1" xmlns="http://www.w3.org/2000/svg" xmlns:xlink="http://www.w3.org/1999/xlink" x="0px" y="0px"
	 viewBox="0 0 2178.81 3056.72" style="enable-background:new 0 0 2178.81 3056.72;" xml:space="preserve">
<style type="text/css">
	.st0{fill:#AF061F;}
	.st1{fill:#0B0D19;}
	.st2{fill:#331E2D;}
	.st3{fill:#000810;}
	.st4{fill:#111117;}
	.st5{fill:#4D4059;}
	.st6{fill:#4B4158;}
	.st7{fill:#4D425F;}
	.st8{fill:#321935;}
	.st9{fill:#FFFFFF;}
	.st10{fill:#4B3E1F;}
	.st11{fill:#01040A;}
	.st12{fill:none;}
	.st13{fill:#6A684D;}
	.st14{fill:#3B010F;}
	.st15{fill:#493B3D;}
	.st16{fill:#61171F;}
	.st17{fill:#3F313D;}
	.st18{fill:#504221;}
	.st19{fill:none;stroke:#504221;stroke-width:2;stroke-miterlimit:10;}
	.st20{fill:none;stroke:#4B3E1F;stroke-miterlimit:10;}
	.st21{fill:#4B3E1F;stroke:#000810;stroke-width:10;stroke-miterlimit:10;}
	.st22{fill:none;stroke:#000810;stroke-width:3;stroke-miterlimit:10;}
	.st23{fill:#755825;}
	.st24{fill:#61171F;stroke:#331E2D;stroke-width:10;stroke-miterlimit:10;}
	.st25{fill:#980E17;stroke:#331E2D;stroke-width:10;stroke-miterlimit:10;}
	.st26{fill:#980E17;stroke:#331E2D;stroke-width:10;stroke-linecap:round;stroke-miterlimit:10;}
	.st27{fill:#980E17;}
	.st28{fill:#92806E;stroke:#331E2D;stroke-miterlimit:10;}
	.st29{fill:#92806E;}
	.st30{fill:#68405A;}
	.st31{fill:none;stroke:#68405A;stroke-width:40;stroke-miterlimit:10;}
	.st32{fill:none;stroke:#331E2D;stroke-width:4;stroke-linecap:round;stroke-miterlimit:10;}
	.st33{font-family:'Tethys-ThinSemiExpanded';}
	.st34{font-size:200px;}
	.st35{font-family:'Tethys-BlackUltraCondensed';}
	.st36{font-family:'Tethys-ThinExtraCondensed';}
</style>
<rect x="195.53" y="339.19" class="st0" width="1660.04" height="2593.82"/>
<rect x="226.11" y="1139.03" transform="matrix(0.7071 0.7071 -0.7071 0.7071 1565.7441 -164.6546)" class="st1" width="1511.04" height="1337.32"/>
<rect x="385.55" y="1214.92" transform="matrix(0.7071 -0.7071 0.7071 0.7071 -1001.7646 1224.8458)" class="st2" width="1184.18" height="1213.49"/>
<path class="st3" d="M515.3,2837.47l60,4l4,104l4-104l64-4l-64-4l-4-64l-4,64L515.3,2837.47z M515.3,2189.47l60,4l4,104l4-104l64-4
	l-64-4l-4-64l-4,64L515.3,2189.47z M591.3,2181.47l72-72l-4-4l-72,68c-4-96-8-196-8-292c0,96-4,196-8,292l-72-68l-4,4l72,72l-328,8
	c200,0,244,4,328,8l-72,72v4c64-56,68-60,76-68c4,80-4,84-16,84c-8,0-12,0-16,4l-12,12c-4,4-4,8-4,12v132h48v-112c0-4,0-8,4-8h8
	c4,0,4,4,4,8v136h-36c-4,0-8,0-12,4l-12,12c-4,4-4,8-4,12v240c0,4,0,8,4,12l12,12c4,4,8,4,12,4h16c8,0,12-8,16-20l4-12l16,32h32
	v-452c0-4,0-8-4-12l-12-12c-4-4-8-4-16-4c-12,0-20-4-16-84c8,8,12,12,76,68v-4l-72-72c84-4,112-8,328-8L591.3,2181.47z
	 M579.3,2453.47l-4-256l-76,72l76-76l-92-4l92-4l-76-76l76,72l4-92l4,92l76-72l-76,76l92,4l-92,4l76,76l-76-72L579.3,2453.47z
	 M575.3,2729.47c-4,0-4-4-4-8v-200c0-4,0-8,4-8h12v216H575.3z"/>
<g>
	<path class="st13" d="M503.78,522.76l10.64,10.64l10.64-10.64l-10.64-10.64L503.78,522.76z M514.42,655.78L509.1,533.4L408,629.18
		l101.1-101.1l-122.38-5.32l122.38-5.32L408,416.33l101.1,95.78l5.32-122.38l5.32,122.38l101.1-95.78l-101.1,101.1l122.38,5.32
		l-122.38,5.32l101.1,101.1l-101.1-95.78L514.42,655.78z M509.1,655.78h10.64L530.38,560l90.46,74.49l5.32-5.32l-74.49-90.46
		l90.46-10.64v-10.64l-90.46-10.64l74.49-90.46l-5.32-5.32l-90.46,74.49l-10.64-95.78H509.1l-10.64,95.78L408,411.01l-5.32,5.32
		l74.49,90.46l-90.46,10.64v10.64l90.46,10.64l-74.49,90.46l5.32,5.32L498.46,560L509.1,655.78z"/>
	<g>
		<path class="st13" d="M649.02,772.31l10.64,10.64l10.64-10.64l-10.64-10.64L649.02,772.31z M659.67,905.34l-5.32-122.38
			l-101.1,95.78l101.1-101.1l-122.38-5.32l122.38-5.32l-101.1-101.1l101.1,95.78l5.32-122.38l5.32,122.38l101.1-95.78l-101.1,101.1
			l122.38,5.32l-122.38,5.32l101.1,101.1l-101.1-95.78L659.67,905.34z M654.34,905.34h10.64l10.64-95.78l90.46,74.49l5.32-5.32
			l-74.49-90.46l90.46-10.64v-10.64l-90.46-10.64l74.49-90.46l-5.32-5.32l-90.46,74.49l-10.64-95.78h-10.64l-10.64,95.78
			l-90.46-74.49l-5.32,5.32l74.49,90.46l-90.46,10.64v10.64l90.46,10.64l-74.49,90.46l5.32,5.32l90.46-74.49L654.34,905.34z"/>
		<path class="st13" d="M358.54,772.31l10.64,10.64l10.64-10.64l-10.64-10.64L358.54,772.31z M369.18,905.34l-5.32-122.38
			l-101.1,95.78l101.1-101.1l-122.38-5.32l122.38-5.32l-101.1-101.1l101.1,95.78l5.32-122.38l5.32,122.38l101.1-95.78l-101.1,101.1
			l122.38,5.32l-122.38,5.32l101.1,101.1l-101.1-95.78L369.18,905.34z M363.86,905.34h10.64l10.64-95.78l90.46,74.49l5.32-5.32
			l-74.49-90.46l90.46-10.64v-10.64l-90.46-10.64l74.49-90.46l-5.32-5.32l-90.46,74.49l-10.64-95.78h-10.64l-10.64,95.78
			l-90.46-74.49l-5.32,5.32l74.49,90.46l-90.46,10.64v10.64l90.46,10.64l-74.49,90.46l5.32,5.32l90.46-74.49L363.86,905.34z"/>
	</g>
</g>
<path class="st3" d="M1466.47,812.73c-59.05,0-114.57-23-156.32-64.75c-41.75-41.75-64.75-97.27-64.75-156.32
	c0-59.05,23-114.57,64.75-156.32s97.27-64.75,156.32-64.75c59.05,0,114.57,23,156.32,64.75c41.75,41.75,64.75,97.27,64.75,156.32
	s-23,114.57-64.75,156.32C1581.04,789.74,1525.52,812.73,1466.47,812.73z M1466.47,377.71c-57.15,0-110.88,22.25-151.29,62.67
	c-40.41,40.41-62.67,94.14-62.67,151.29c0,57.15,22.25,110.88,62.67,151.29c40.41,40.41,94.14,62.67,151.29,62.67
	s110.88-22.25,151.29-62.67c40.41-40.41,62.67-94.14,62.67-151.29c0-57.15-22.25-110.88-62.67-151.29
	C1577.35,399.96,1523.62,377.71,1466.47,377.71z"/>
<g>
	<circle class="st3" cx="1396.67" cy="794.11" r="26.74"/>
</g>
<g>
	<g>
		<g>
			<path class="st3" d="M1301.83,1029.25c-25.61,0-48.4-6.06-67.73-18c-15.46-9.56-28.75-22.87-39.49-39.58
				c-18.26-28.41-22.88-57.22-22.92-57.51l2.11-0.33c0.04,0.28,4.61,28.71,22.65,56.74c10.57,16.42,23.63,29.51,38.81,38.88
				c18.98,11.72,41.38,17.66,66.57,17.66V1029.25z"/>
		</g>
		<g>
			
				<rect x="1148.54" y="913.33" transform="matrix(0.9717 -0.2363 0.2363 0.9717 -182.8282 303.4685)" class="st3" width="51.93" height="2.14"/>
		</g>
	</g>
	<g>
		<g>
			<path class="st3" d="M1301.23,1029.25v-2.14c25.21,0,47.62-5.95,66.61-17.68c15.19-9.39,28.25-22.48,38.82-38.92
				c18.02-28.03,22.57-56.4,22.61-56.68l2.11,0.33c-0.04,0.29-4.67,29.1-22.92,57.51c-10.74,16.71-24.03,30.03-39.49,39.58
				C1349.63,1023.19,1326.85,1029.25,1301.23,1029.25z"/>
		</g>
		<g>
			
				<rect x="1427.5" y="888.44" transform="matrix(0.2364 -0.9716 0.9716 0.2364 202.3087 2086.2488)" class="st3" width="2.14" height="51.93"/>
		</g>
	</g>
</g>
<circle class="st3" cx="983.99" cy="1814.27" r="530.65"/>
<polygon class="st0" points="682.48,2178.98 687.35,2101.01 760.44,2096.14 687.35,2091.27 682.48,1964.57 677.61,2091.27 
	599.64,2096.14 677.61,2101.01 "/>
<polygon class="st0" points="1262.38,2151.04 1265.58,2099.92 1313.51,2096.72 1265.58,2093.53 1262.38,2010.45 1259.19,2093.53 
	1208.06,2096.72 1259.19,2099.92 "/>
<g>
	<path class="st4" d="M670.33,1746.7c-0.88-24.02-1.77-48.04-1.79-72.06c-18.21,9.52-35.04,19.86-50.32,30.92
		c-1.51,28.72-3.2,57.37-5.3,85.79c-4.48,66.97-6.28,133.95-4.93,202.95c0.14,7.47,0.28,14.96,0.43,22.46
		c18.46,14.38,39.46,27.64,62.65,39.58c0.04-3.08,0.09-6.17,0.16-9.28C673.47,1945.59,673.92,1848.18,670.33,1746.7z"/>
	<path class="st5" d="M612.92,1791.35c2.09-28.42,3.78-57.07,5.3-85.79c-26.51,19.18-48.33,40.52-64.52,63.47
		c0.01,0.67,0.02,1.35,0.02,2.02c0.45,20.3,2.24,40.59,2.69,60.89c0.82,44.72,0.42,89.02,0.3,132.88
		c13.72,18.5,31.13,35.91,51.71,51.94c-0.15-7.5-0.3-15-0.43-22.46C606.65,1925.3,608.44,1858.32,612.92,1791.35z"/>
	<path class="st4" d="M556.42,1831.94c-0.45-20.3-2.24-40.59-2.69-60.89c-0.01-0.67-0.02-1.35-0.02-2.02
		c-20.9,29.64-32.4,61.96-32.4,95.81c0,35.44,12.6,69.22,35.42,99.99C556.83,1920.96,557.24,1876.66,556.42,1831.94z"/>
	<path class="st6" d="M750.16,1913.12c-2.48-89.8-7.2-189.73,0.66-272.77c-29.69,9.7-57.28,21.22-82.28,34.29
		c0.02,24.02,0.9,48.04,1.79,72.06c3.59,101.48,3.14,198.89,0.9,300.37c-0.07,3.1-0.12,6.19-0.16,9.28
		c23.98,12.35,50.3,23.29,78.53,32.57C751.11,2030.6,751.81,1972.62,750.16,1913.12z"/>
	<path class="st4" d="M1240.46,1651.27c-73.93-28.75-163.54-45.59-260.1-45.59c-83.62,0-162.01,12.62-229.53,34.68
		c-7.86,83.04-3.14,182.97-0.66,272.77c1.64,59.5,0.94,117.48-0.56,175.8c67.8,22.3,146.64,35.08,230.76,35.08
		c94.91,0,183.09-16.26,256.28-44.12c0.69-49.79,2.31-99.44,5.07-148.5C1247.05,1835.69,1246.62,1738.37,1240.46,1651.27z"/>
	<path class="st7" d="M1439.42,1864.84c0-88.61-78.78-166.84-198.95-213.57c6.15,87.1,6.59,184.43,1.24,280.12
		c-2.75,49.05-4.38,98.71-5.07,148.5C1358.97,2033.33,1439.42,1954.39,1439.42,1864.84z"/>
</g>
<rect x="636.45" y="1049.5" class="st12" width="864.61" height="787.46"/>
<text transform="matrix(1 0 0 1 636.4498 1203.0977)"><tspan x="0" y="0" class="st9 st33 st34">Hate</tspan><tspan x="0" y="180" class="st9 st33 st34">bein</tspan><tspan x="0" y="360" class="st9 st33 st34">sober</tspan></text>
<rect x="633.79" y="2052.44" class="st12" width="1300.9" height="787.46"/>
<text transform="matrix(1 0 0 1 633.7905 2206.0415)"><tspan x="0" y="0" class="st9 st33 st34">codeine</tspan><tspan x="0" y="180" class="st9 st33 st34">crazy</tspan></text>
<polygon class="st12" points="648.44,1531.68 740.44,1527.68 648.44,1523.68 712.44,1527.68 "/>
<polygon class="st12" points="740.44,1523.68 648.44,1527.68 740.44,1531.68 680.44,1527.68 "/>
<polygon class="st0" points="630.3,1429.19 773.74,1420.22 630.3,1411.26 621.34,1267.82 612.37,1411.26 477.89,1420.22 
	612.37,1429.19 621.34,1662.28 "/>
<polygon class="st12" points="838.99,1531.68 930.99,1527.68 838.99,1523.68 902.99,1527.68 "/>
<polygon class="st0" points="1013.62,2313.21 1019.96,2211.68 1115.15,2205.33 1019.96,2198.98 1013.62,2033.99 1007.27,2198.98 
	905.74,2205.33 1007.27,2211.68 "/>
<polygon class="st12" points="930.99,1523.68 838.99,1527.68 930.99,1531.68 870.99,1527.68 "/>
<polygon class="st0" points="886.99,1661.37 950.99,1657.37 886.99,1653.37 882.99,1589.37 878.99,1653.37 818.99,1657.37 
	878.99,1661.37 882.99,1765.37 "/>
<polygon class="st12" points="1044.5,1531.68 1136.5,1527.68 1044.5,1523.68 1108.5,1527.68 "/>
<polygon class="st12" points="1136.5,1523.68 1044.5,1527.68 1136.5,1531.68 1076.5,1527.68 "/>
<polygon class="st0" points="1103.14,1542.32 1167.14,1538.32 1103.14,1534.32 1099.14,1470.32 1095.14,1534.32 1035.14,1538.32 
	1095.14,1542.32 1099.14,1646.32 "/>
<polygon class="st12" points="1228.06,1531.68 1320.06,1527.68 1228.06,1523.68 1292.06,1527.68 "/>
<polygon class="st0" points="1276.06,1673.53 1340.06,1669.53 1276.06,1665.53 1272.06,1601.53 1268.06,1665.53 1208.06,1669.53 
	1268.06,1673.53 1272.06,1777.53 "/>
<polygon class="st4" points="1440.26,1243.77 1539.18,1243.77 1419.46,2145.62 "/>
<polygon class="st4" points="1153.43,1701.45 1278.47,1243.77 1124.17,2257.46 "/>
<g>
	<g>
		<circle class="st29" cx="1102.6" cy="1867.26" r="154.9"/>
		<path class="st2" d="M1102.6,2022.51c-41.47,0-80.46-16.15-109.78-45.47c-29.32-29.32-45.47-68.31-45.47-109.78
			s16.15-80.46,45.47-109.78c29.32-29.32,68.31-45.47,109.78-45.47s80.46,16.15,109.78,45.47c29.32,29.32,45.47,68.31,45.47,109.78
			s-16.15,80.46-45.47,109.78C1183.05,2006.37,1144.07,2022.51,1102.6,2022.51z M1102.6,1712.71c-41.28,0-80.09,16.08-109.28,45.27
			c-29.19,29.19-45.27,68-45.27,109.28s16.08,80.09,45.27,109.28c29.19,29.19,68,45.27,109.28,45.27s80.09-16.08,109.28-45.27
			c29.19-29.19,45.27-68,45.27-109.28s-16.08-80.09-45.27-109.28C1182.69,1728.79,1143.88,1712.71,1102.6,1712.71z"/>
	</g>
	<g>
		<path class="st30" d="M1102.6,1985.58c-25.57,0-51.83-6.88-73.96-19.36c-8.89-5.02-16.68-10.71-22.53-16.46
			c-7.59-7.46-11.28-14.36-11.28-21.1c0-11.6,4.95-18.42,9.1-22.1c12.39-10.99,31.51-8.68,57.98-5.5c14.01,1.69,29.89,3.6,46.32,3.6
			c17.14,0,33.19-2.97,47.34-5.59c22.12-4.09,39.6-7.32,52.02,3.01c6.98,5.8,10.51,14.74,10.51,26.56c0,7.2-4.21,14.13-13.25,21.8
			c-6.54,5.55-15.18,11.1-24.99,16.06C1165.78,1973.64,1137.03,1985.58,1102.6,1985.58z M1023.76,1927.37
			c2.93,3.51,10.46,10.14,22.94,16.51c12.04,6.15,31.51,13.47,55.9,13.47c19.29,0,40.46-4.85,59.62-13.65
			c15.37-7.06,24.43-14.29,27.53-17.71c-0.12-1.13-0.3-1.83-0.42-2.21c-4.24-1.44-18.84,1.26-28.62,3.07
			c-14.59,2.7-32.74,6.06-52.47,6.06c-18.12,0-34.89-2.02-49.69-3.8c-10.07-1.21-18.78-2.26-25.75-2.4
			C1027.84,1926.6,1025.13,1927.02,1023.76,1927.37z"/>
	</g>
	<g>
		<g>
			<path class="st30" d="M1040.67,1768.58c-24.48,0-44.32,27.13-44.32,60.61s19.84,60.61,44.32,60.61s44.32-27.13,44.32-60.61
				S1065.15,1768.58,1040.67,1768.58z M1036.81,1838.33c-18.62,0-39.35-4.57-39.35-4.57s28.81-13.72,50.24-13.72
				s36.19,10.81,36.19,10.81S1055.43,1838.33,1036.81,1838.33z"/>
		</g>
		<g>
			<path class="st2" d="M1044.63,1820.72c-0.72,0-1.34-0.55-1.4-1.29l-4.38-49.91c-0.07-0.78,0.51-1.46,1.28-1.53
				c0.78-0.06,1.46,0.51,1.53,1.28l4.38,49.91c0.07,0.78-0.51,1.46-1.28,1.53C1044.71,1820.71,1044.67,1820.72,1044.63,1820.72z"/>
		</g>
		<g>
			<path class="st2" d="M1045.25,1890.6c-0.78,0-1.41-0.63-1.41-1.41v-50.1c0-0.78,0.63-1.41,1.41-1.41s1.41,0.63,1.41,1.41v50.1
				C1046.66,1889.96,1046.03,1890.6,1045.25,1890.6z"/>
		</g>
	</g>
	<g>
		<g>
			<path class="st30" d="M1119.33,1824.96c0,33.47,19.84,60.61,44.32,60.61c24.48,0,44.32-27.13,44.32-60.61
				c0-33.47-19.84-60.61-44.32-60.61C1139.17,1764.35,1119.33,1791.49,1119.33,1824.96z M1120.44,1826.62
				c0,0,14.76-10.81,36.19-10.81c21.43,0,50.24,13.72,50.24,13.72s-20.73,4.57-39.35,4.57S1120.44,1826.62,1120.44,1826.62z"/>
		</g>
		<g>
			<path class="st2" d="M1159.7,1816.49c-0.04,0-0.08,0-0.13-0.01c-0.78-0.07-1.35-0.75-1.28-1.53l4.38-49.91
				c0.07-0.78,0.75-1.34,1.53-1.28c0.78,0.07,1.35,0.75,1.28,1.53l-4.38,49.91C1161.04,1815.94,1160.42,1816.49,1159.7,1816.49z"/>
		</g>
		<g>
			<path class="st2" d="M1159.07,1886.37c-0.78,0-1.41-0.63-1.41-1.41v-50.1c0-0.78,0.63-1.41,1.41-1.41c0.78,0,1.41,0.63,1.41,1.41
				v50.1C1160.48,1885.74,1159.85,1886.37,1159.07,1886.37z"/>
		</g>
	</g>
</g>
<g>
	<g>
		<circle class="st23" cx="913.93" cy="1865.42" r="151.84"/>
		<path class="st3" d="M913.93,2019.75c-41.22,0-79.98-16.05-109.13-45.2c-29.15-29.15-45.2-67.9-45.2-109.12
			c0-41.22,16.05-79.98,45.2-109.13c29.15-29.15,67.9-45.2,109.13-45.2c41.22,0,79.98,16.05,109.12,45.2
			c29.15,29.15,45.2,67.9,45.2,109.13c0,41.22-16.05,79.98-45.2,109.12C993.9,2003.69,955.15,2019.75,913.93,2019.75z
			 M913.93,1716.06c-39.89,0-77.4,15.54-105.61,43.75c-28.21,28.21-43.75,65.72-43.75,105.61c0,39.89,15.54,77.4,43.75,105.61
			c28.21,28.21,65.72,43.75,105.61,43.75s77.4-15.54,105.61-43.75c28.21-28.21,43.75-65.72,43.75-105.61
			c0-39.9-15.54-77.4-43.75-105.61C991.33,1731.6,953.82,1716.06,913.93,1716.06z"/>
	</g>
	<g>
		<circle class="st3" cx="851.2" cy="1795.03" r="18.67"/>
	</g>
	<g>
		<circle class="st3" cx="980.34" cy="1795.03" r="18.67"/>
	</g>
	<g>
		<g>
			<g>
				<path class="st3" d="M914.14,1959.18c-17.88,0-33.79-4.23-47.28-12.57c-10.8-6.67-20.07-15.97-27.57-27.63
					c-12.75-19.83-15.97-39.94-16-40.14l1.47-0.23c0.03,0.2,3.22,20.04,15.81,39.61c7.38,11.47,16.49,20.6,27.1,27.14
					c13.25,8.18,28.88,12.33,46.47,12.33V1959.18z"/>
			</g>
			<g>
				
					<rect x="807.12" y="1878.26" transform="matrix(0.9717 -0.2363 0.2363 0.9717 -420.6829 248.2535)" class="st3" width="36.25" height="1.49"/>
			</g>
		</g>
		<g>
			<g>
				<path class="st3" d="M913.72,1959.18v-1.49c17.6,0,33.24-4.15,46.5-12.34c10.6-6.55,19.72-15.69,27.1-27.17
					c12.58-19.57,15.75-39.37,15.78-39.57l1.47,0.23c-0.03,0.2-3.26,20.31-16,40.14c-7.5,11.66-16.77,20.96-27.57,27.63
					C947.5,1954.95,931.6,1959.18,913.72,1959.18z"/>
			</g>
			<g>
				
					<rect x="1001.86" y="1860.88" transform="matrix(0.2364 -0.9716 0.9716 0.2364 -1060.1857 2408.8918)" class="st3" width="1.49" height="36.25"/>
			</g>
		</g>
	</g>
</g>
<g>
	<g>
		<path class="st16" d="M891.18,1885.31c-0.08-0.07-7.97-6.18-44.41-11.39c-26.45-3.78-59.99-5.87-94.43-5.87
			c-34.44,0-67.98,2.08-94.43,5.87c-36.44,5.21-44.33,11.33-44.41,11.39c0.78-0.63,2.99-3.42,2.99-7.84h-34.84
			c0-4.02,1.2-11.79,9.21-18.65c3.46-2.96,7.9-5.54,13.59-7.9c8.9-3.68,21.18-6.91,36.51-9.6c29.91-5.24,69.47-8.12,111.39-8.12
			c41.92,0,81.48,2.89,111.39,8.12c15.33,2.69,27.61,5.91,36.51,9.6c5.69,2.36,10.14,4.94,13.59,7.9
			c8.01,6.86,9.21,14.62,9.21,18.65h-34.84C888.19,1881.88,890.41,1884.68,891.18,1885.31z"/>
		<path class="st2" d="M889.42,1887.62c-0.08-0.06-8.35-5.86-43.07-10.83c-26.32-3.77-59.71-5.84-94.02-5.84s-67.7,2.07-94.02,5.84
			c-34.71,4.97-42.99,10.77-43.07,10.83l0.07-0.05l-3.66-4.51c0.25-0.23,0.99-1.17,1.47-2.68h-34.4v-2.9
			c0-4.52,1.33-13.24,10.22-20.85c3.69-3.16,8.39-5.9,14.37-8.38c9.09-3.77,21.58-7.05,37.12-9.78
			c30.07-5.27,69.81-8.17,111.89-8.17s81.82,2.9,111.89,8.17c15.54,2.72,28.03,6.01,37.12,9.78c5.98,2.47,10.68,5.22,14.37,8.38
			c8.89,7.61,10.22,16.33,10.22,20.85v2.9h-34.39c0.48,1.51,1.23,2.45,1.49,2.69l-3.68,4.49L889.42,1887.62z M752.34,1865.14
			c34.58,0,68.26,2.09,94.84,5.9c20.05,2.87,31.7,6.05,38.23,8.42c-0.08-0.63-0.12-1.3-0.12-1.99v-2.9h34.61
			c-0.58-3.72-2.47-8.84-7.96-13.54c-3.22-2.76-7.41-5.19-12.82-7.42c-8.7-3.6-20.78-6.77-35.9-9.42
			c-29.75-5.21-69.13-8.08-110.89-8.08s-81.14,2.87-110.88,8.08c-15.12,2.65-27.2,5.82-35.9,9.42c-5.4,2.24-9.6,4.67-12.82,7.42
			c-5.49,4.7-7.38,9.82-7.96,13.54h34.61v2.9c0,0.69-0.04,1.36-0.12,1.99c6.54-2.37,18.19-5.55,38.23-8.42
			C684.08,1867.24,717.76,1865.14,752.34,1865.14z"/>
	</g>
	<g>
		<path class="st27" d="M761.95,1993.6l45.7-33.78c13.04-9.64,6.22-30.33-9.99-30.33h-91.4c-16.21,0-23.03,20.69-9.99,30.33
			l45.7,33.78C747.9,1997.99,756.01,1997.99,761.95,1993.6z"/>
	</g>
	<path class="st2" d="M751.95,1999.83c-4.11,0-8.21-1.3-11.72-3.89l-45.7-33.78c-6.97-5.15-9.72-13.79-7-22.02
		c2.71-8.23,10.06-13.54,18.72-13.54h91.4c8.66,0,16.01,5.32,18.72,13.54c2.71,8.23-0.04,16.87-7,22.02l-45.7,33.78l-1.73-2.33
		l1.73,2.33C760.17,1998.53,756.06,1999.83,751.95,1999.83z M706.25,1932.39c-7.42,0-11.69,4.94-13.21,9.55
		c-1.52,4.62-1.02,11.13,4.94,15.54l45.7,33.78c4.95,3.66,11.59,3.66,16.54,0l45.7-33.78c5.96-4.41,6.46-10.92,4.94-15.54
		c-1.52-4.62-5.79-9.55-13.21-9.55H706.25z"/>
	<g>
		<g>
			<path class="st27" d="M796.74,1905.67h-88.8c0-41.97,2.28-81.59,6.42-111.56c2.13-15.44,4.71-27.85,7.66-36.88
				c1.98-6.05,4.2-10.86,6.8-14.72c7.84-11.61,18.1-13.35,23.52-13.35c5.42,0,15.68,1.73,23.52,13.35c2.6,3.86,4.83,8.67,6.8,14.72
				c2.95,9.03,5.53,21.44,7.66,36.88C794.46,1824.08,796.74,1863.7,796.74,1905.67z M737.16,1768.2"/>
			<path class="st2" d="M799.64,1908.57h-94.61v-2.9c0-42.1,2.29-81.86,6.45-111.96c2.16-15.61,4.77-28.19,7.78-37.38
				c2.06-6.31,4.4-11.36,7.16-15.44c8.59-12.72,19.93-14.62,25.92-14.62s17.34,1.9,25.92,14.62c2.76,4.08,5.1,9.13,7.16,15.44
				c3,9.19,5.62,21.77,7.78,37.38c4.16,30.1,6.45,69.86,6.45,111.96V1908.57z M710.84,1902.76h82.99
				c-0.1-40.76-2.36-79.1-6.39-108.26c-2.11-15.27-4.65-27.51-7.54-36.38c-1.89-5.79-4-10.36-6.45-13.99
				c-7.09-10.5-16.27-12.07-21.11-12.07s-14.02,1.57-21.11,12.07c-2.45,3.63-4.56,8.2-6.45,13.99c-2.9,8.87-5.43,21.11-7.54,36.38
				C713.21,1823.66,710.95,1862,710.84,1902.76z"/>
		</g>
	</g>
	<g>
		<g>
			<path class="st2" d="M752.34,1899.52L752.34,1899.52c2.14,0,3.88-3.24,3.88-7.24v-111.23c0-4-1.74-7.24-3.88-7.24
				c-2.14,0-3.88,3.24-3.88,7.24v111.23C748.46,1896.28,750.2,1899.52,752.34,1899.52z"/>
		</g>
	</g>
	<path class="st27" d="M891.24,1864.49c-0.1,0.03-7.97,6.18-44.41,11.39c-26.45,3.78-59.99,5.87-94.43,5.87
		c-34.44,0-67.98-2.08-94.43-5.87c-36.45-5.21-44.31-11.36-44.41-11.39c-7.8-2.54-26.79,1.38-31.85,7.84
		c-2.48,3.16,1.2,11.79,9.21,18.65c3.46,2.96,7.9,5.54,13.59,7.9c8.9,3.68,21.18,6.91,36.51,9.6c29.91,5.24,69.47,8.13,111.39,8.13
		c41.92,0,81.47-2.89,111.39-8.13c15.33-2.69,27.61-5.91,36.51-9.6c5.69-2.36,10.14-4.94,13.59-7.9
		c8.01-6.86,11.42-15.29,9.21-18.65C918.57,1865.48,904.74,1860.77,891.24,1864.49z"/>
	<path class="st2" d="M752.39,1919.5c-42.08,0-81.82-2.9-111.89-8.17c-15.54-2.72-28.03-6.01-37.12-9.78
		c-5.98-2.47-10.68-5.22-14.37-8.38c-9.03-7.73-13.33-17.88-9.6-22.64c3.89-4.97,12.86-7.48,16.53-8.33
		c7.31-1.69,14.23-1.87,18.5-0.48c0.39,0.13,0.65,0.3,0.78,0.39c0.91,0.61,9.82,6.12,43.15,10.89c26.32,3.77,59.71,5.84,94.02,5.84
		c34.31,0,67.7-2.07,94.02-5.84c33.23-4.75,42.23-10.28,43.15-10.89c0.15-0.1,0.45-0.3,0.9-0.43l0,0
		c15.2-4.18,30.02,1.43,35.04,9.03c3.34,5.06-0.94,14.92-9.74,22.45c-3.69,3.16-8.39,5.9-14.37,8.38
		c-9.09,3.77-21.58,7.05-37.12,9.78C834.21,1916.6,794.47,1919.5,752.39,1919.5z M607.4,1866.6c-2.98,0-6.55,0.43-10.15,1.26
		c-6.3,1.46-11.39,3.85-13.27,6.25c-0.83,1.06,0.97,7.94,8.81,14.65c3.22,2.76,7.41,5.19,12.82,7.42c8.7,3.6,20.78,6.77,35.9,9.42
		c29.75,5.21,69.13,8.08,110.88,8.08c41.76,0,81.14-2.87,110.89-8.08c15.12-2.65,27.2-5.82,35.9-9.42c5.4-2.24,9.6-4.67,12.82-7.42
		c7.67-6.56,9.58-13.46,8.67-14.84c-3.79-5.75-16.26-9.87-28.24-6.75c-3,1.86-13.8,7.09-45.19,11.58c-26.58,3.8-60.27,5.9-94.84,5.9
		c-34.58,0-68.26-2.09-94.84-5.9c-31.66-4.53-42.35-9.79-45.24-11.61C611.02,1866.78,609.33,1866.6,607.4,1866.6z M892.01,1867.29
		L892.01,1867.29L892.01,1867.29z"/>
	<path class="st27" d="M710.19,1945.18c1.54,6.18,11.22,15.64,21.05,15.64c10.35,0,7.2-17.46,21.24-17.46
		c10.53,0,8.74,18.18,22.43,18.18c9.63,0,12.91-4.96,17.55-12.96"/>
	<path class="st2" d="M774.91,1964.44c-8.99,0-12.56-6.36-15.43-11.46c-2.41-4.29-3.92-6.72-6.99-6.72c-5.49,0-7.35,3.09-9.93,8.14
		c-2.12,4.15-4.75,9.32-11.32,9.32c-11.67,0-22.09-10.74-23.86-17.84c-0.39-1.56,0.56-3.13,2.11-3.52c1.55-0.39,3.13,0.56,3.52,2.11
		c1.18,4.72,9.49,13.44,18.23,13.44c2.73,0,3.91-1.78,6.14-6.15c2.43-4.77,5.77-11.31,15.1-11.31c6.62,0,9.51,5.14,12.06,9.68
		c2.97,5.29,5.15,8.5,10.37,8.5c8.01,0,10.53-3.74,15.03-11.52c0.8-1.39,2.58-1.86,3.97-1.06c1.39,0.8,1.86,2.58,1.06,3.97
		C790.67,1957.44,786.62,1964.44,774.91,1964.44z"/>
</g>
<polygon class="st0" points="886.99,2110.09 890.99,2046.09 950.99,2042.09 890.99,2038.09 886.99,1934.09 882.99,2038.09 
	818.99,2042.09 882.99,2046.09 "/>
<rect x="314.55" y="1517.72" class="st12" width="864.61" height="787.46"/>
<text transform="matrix(1 0 0 1 314.5501 1671.3154)" class="st9 st35 st34">33</text>
<rect x="1285.57" y="1789.07" class="st12" width="864.61" height="787.46"/>
<text transform="matrix(1 0 0 1 1285.5698 1942.6689)"><tspan x="0" y="0" class="st9 st35 st34">bOi</tspan><tspan x="241.6" y="0" class="st9 st36 st34">TOWN</tspan></text>
<polygon class="st4" points="361.98,1781.26 535.57,1378.22 326.07,2387.62 "/>
</svg>
