<?xml version="1.0" encoding="utf-8"?>
<!-- Generator: Adobe Illustrator 24.3.0, SVG Export Plug-In . SVG Version: 6.00 Build 0)  -->
<svg version="1.1" id="Layer_1" xmlns="http://www.w3.org/2000/svg" xmlns:xlink="http://www.w3.org/1999/xlink" x="0px" y="0px"
	 viewBox="0 0 1920 1080" style="enable-background:new 0 0 1920 1080;" xml:space="preserve">
<style type="text/css">
	.st0{fill:#FFFFFF;}
</style>
<rect width="1920" height="1080"/>
<path class="st0" d="M896,964.5l60,4l4,104l4-104l64-4l-64-4l-4-64l-4,64L896,964.5z M896,316.5l60,4l4,104l4-104l64-4l-64-4l-4-64
	l-4,64L896,316.5z M972,308.5l72-72l-4-4l-72,68c-4-96-8-196-8-292c0,96-4,196-8,292l-72-68l-4,4l72,72l-328,8c200,0,244,4,328,8
	l-72,72v4c64-56,68-60,76-68c4,80-4,84-16,84c-8,0-12,0-16,4l-12,12c-4,4-4,8-4,12v132h48v-112c0-4,0-8,4-8h8c4,0,4,4,4,8v136h-36
	c-4,0-8,0-12,4l-12,12c-4,4-4,8-4,12v240c0,4,0,8,4,12l12,12c4,4,8,4,12,4h16c8,0,12-8,16-20l4-12l16,32h32v-452c0-4,0-8-4-12
	l-12-12c-4-4-8-4-16-4c-12,0-20-4-16-84c8,8,12,12,76,68v-4l-72-72c84-4,112-8,328-8L972,308.5z M960,580.5l-4-256l-76,72l76-76
	l-92-4l92-4l-76-76l76,72l4-92l4,92l76-72l-76,76l92,4l-92,4l76,76l-76-72L960,580.5z M956,856.5c-4,0-4-4-4-8v-200c0-4,0-8,4-8h12
	v216H956z"/>
</svg>
