<?xml version="1.0" encoding="utf-8"?>
<!-- Generator: Adobe Illustrator 24.3.0, SVG Export Plug-In . SVG Version: 6.00 Build 0)  -->
<svg version="1.1" id="Layer_1" xmlns="http://www.w3.org/2000/svg" xmlns:xlink="http://www.w3.org/1999/xlink" x="0px" y="0px"
	 viewBox="0 0 1920 1080" style="enable-background:new 0 0 1920 1080;" xml:space="preserve">
<style type="text/css">
	.st0{fill:#FFFFFF;}
</style>
<rect width="1920" height="1080"/>
<g>
	<path class="st0" d="M949.36,415.22L960,425.86l10.64-10.64L960,404.58L949.36,415.22z M960,548.25l-5.32-122.38l-101.1,95.78
		l101.1-101.1l-122.38-5.32l122.38-5.32l-101.1-101.1l101.1,95.78L960,282.2l5.32,122.38l101.1-95.78l-101.1,101.1l122.38,5.32
		l-122.38,5.32l101.1,101.1l-101.1-95.78L960,548.25z M954.68,548.25h10.64l10.64-95.78l90.46,74.49l5.32-5.32l-74.49-90.46
		l90.46-10.64V409.9l-90.46-10.64l74.49-90.46l-5.32-5.32l-90.46,74.49l-10.64-95.78h-10.64l-10.64,95.78l-90.46-74.49l-5.32,5.32
		l74.49,90.46l-90.46,10.64v10.64l90.46,10.64l-74.49,90.46l5.32,5.32l90.46-74.49L954.68,548.25z"/>
	<g>
		<path class="st0" d="M1094.6,664.78l10.64,10.64l10.64-10.64l-10.64-10.64L1094.6,664.78z M1105.24,797.8l-5.32-122.38
			l-101.1,95.78l101.1-101.1l-122.38-5.32l122.38-5.32l-101.1-101.1l101.1,95.78l5.32-122.38l5.32,122.38l101.1-95.78l-101.1,101.1
			l122.38,5.32l-122.38,5.32l101.1,101.1l-101.1-95.78L1105.24,797.8z M1099.92,797.8h10.64l10.64-95.78l90.46,74.49l5.32-5.32
			l-74.49-90.46l90.46-10.64v-10.64l-90.46-10.64l74.49-90.46l-5.32-5.32l-90.46,74.49l-10.64-95.78h-10.64l-10.64,95.78
			l-90.46-74.49l-5.32,5.32l74.49,90.46l-90.46,10.64v10.64l90.46,10.64L993.5,771.2l5.32,5.32l90.46-74.49L1099.92,797.8z"/>
		<path class="st0" d="M804.11,664.78l10.64,10.64l10.64-10.64l-10.64-10.64L804.11,664.78z M814.76,797.8l-5.32-122.38
			l-101.1,95.78l101.1-101.1l-122.38-5.32l122.38-5.32l-101.1-101.1l101.1,95.78l5.32-122.38l5.32,122.38l101.1-95.78l-101.1,101.1
			l122.38,5.32l-122.38,5.32l101.1,101.1l-101.1-95.78L814.76,797.8z M809.44,797.8h10.64l10.64-95.78l90.46,74.49l5.32-5.32
			L852,680.74l90.46-10.64v-10.64L852,648.81l74.49-90.46l-5.32-5.32l-90.46,74.49l-10.64-95.78h-10.64l-10.64,95.78l-90.46-74.49
			l-5.32,5.32l74.49,90.46l-90.46,10.64v10.64l90.46,10.64l-74.49,90.46l5.32,5.32l90.46-74.49L809.44,797.8z"/>
	</g>
</g>
</svg>
