<?xml version="1.0" encoding="utf-8"?>
<!-- Generator: Adobe Illustrator 24.3.0, SVG Export Plug-In . SVG Version: 6.00 Build 0)  -->
<svg version="1.1" id="Layer_1" xmlns="http://www.w3.org/2000/svg" xmlns:xlink="http://www.w3.org/1999/xlink" x="0px" y="0px"
	 viewBox="0 0 834.01 1161.23" style="enable-background:new 0 0 834.01 1161.23;" xml:space="preserve">
<style type="text/css">
	.st0{fill:#AF061F;}
	.st1{fill:#0B0D19;}
	.st2{fill:#331E2D;}
	.st3{fill:#000810;}
	.st4{fill:#111117;}
	.st5{fill:#4D4059;}
	.st6{fill:#4B4158;}
	.st7{fill:#4D425F;}
	.st8{fill:#321935;}
	.st9{fill:#FFFFFF;}
	.st10{fill:#4B3E1F;}
	.st11{fill:#01040A;}
	.st12{fill:none;}
	.st13{fill:#6A684D;}
	.st14{fill:#3B010F;}
	.st15{fill:#493B3D;}
	.st16{fill:#61171F;}
	.st17{fill:#3F313D;}
	.st18{fill:#504221;}
	.st19{fill:none;stroke:#504221;stroke-width:2;stroke-miterlimit:10;}
	.st20{fill:none;stroke:#4B3E1F;stroke-miterlimit:10;}
	.st21{fill:#4B3E1F;stroke:#000810;stroke-width:10;stroke-miterlimit:10;}
	.st22{fill:none;stroke:#000810;stroke-width:3;stroke-miterlimit:10;}
	.st23{fill:#755825;}
	.st24{fill:#61171F;stroke:#331E2D;stroke-width:10;stroke-miterlimit:10;}
	.st25{fill:#980E17;stroke:#331E2D;stroke-width:10;stroke-miterlimit:10;}
	.st26{fill:#980E17;stroke:#331E2D;stroke-width:10;stroke-linecap:round;stroke-miterlimit:10;}
	.st27{fill:#980E17;}
	.st28{fill:#92806E;stroke:#331E2D;stroke-miterlimit:10;}
	.st29{fill:#92806E;}
	.st30{fill:#68405A;}
	.st31{fill:none;stroke:#68405A;stroke-width:40;stroke-miterlimit:10;}
	.st32{fill:none;stroke:#331E2D;stroke-width:4;stroke-linecap:round;stroke-miterlimit:10;}
</style>
<path class="st9" d="M353.01,1004.62l60,4l4,104l4-104l64-4l-64-4l-4-64l-4,64L353.01,1004.62z M353.01,356.62l60,4l4,104l4-104
	l64-4l-64-4l-4-64l-4,64L353.01,356.62z M429.01,348.62l72-72l-4-4l-72,68c-4-96-8-196-8-292c0,96-4,196-8,292l-72-68l-4,4l72,72
	l-328,8c200,0,244,4,328,8l-72,72v4c64-56,68-60,76-68c4,80-4,84-16,84c-8,0-12,0-16,4l-12,12c-4,4-4,8-4,12v132h48v-112
	c0-4,0-8,4-8h8c4,0,4,4,4,8v136h-36c-4,0-8,0-12,4l-12,12c-4,4-4,8-4,12v240c0,4,0,8,4,12l12,12c4,4,8,4,12,4h16c8,0,12-8,16-20
	l4-12l16,32h32v-452c0-4,0-8-4-12l-12-12c-4-4-8-4-16-4c-12,0-20-4-16-84c8,8,12,12,76,68v-4l-72-72c84-4,112-8,328-8L429.01,348.62
	z M417.01,620.62l-4-256l-76,72l76-76l-92-4l92-4l-76-76l76,72l4-92l4,92l76-72l-76,76l92,4l-92,4l76,76l-76-72L417.01,620.62z
	 M413.01,896.62c-4,0-4-4-4-8v-200c0-4,0-8,4-8h12v216H413.01z"/>
</svg>
